# xmcd
#
# Track frame offsets: 
#        150
#        15520
#        38890
#        57320
#        77660
#        89740
#        106582
#        135250
#        151425
#        169540
#        187353
#        209618
#        225858
#        247305
#        268580
#        290998
#        318455
#        340328
#
# Disc length: 4720 seconds
#
# Revision: 0
# Processed by: cddbd v1.5.2PL0 Copyright (c) Steve Scherf et al.
# Submitted via: ExactAudioCopy v0.95b4
#
DISCID=04126e12
DTITLE=J Geils Band - Love Stinks and Freeze Frame
DYEAR=1980
DGENRE=r&b (white)
TTITLE0=Just Can't Wait
TTITLE1=Come Back
TTITLE2=Takin' You Down
TTITLE3=Night Time
TTITLE4=No Anchovies, Please
TTITLE5=Love Stinks
TTITLE6=Trying Not to Think About It
TTITLE7=Desire (Please Don't Turn Away)
TTITLE8=Till the Walls Come Tumblin' Down
TTITLE9=Freeze-Frame
TTITLE10=Rage in the Cage
TTITLE11=Centerfold
TTITLE12=Do You Remember When
TTITLE13=Insane, Insane Again
TTITLE14=Flamethrower
TTITLE15=River Blindness
TTITLE16=Angel in Blue
TTITLE17=Piss on the Wall
EXTD=
EXTT0=
EXTT1=
EXTT2=
EXTT3=
EXTT4=
EXTT5=
EXTT6=
EXTT7=
EXTT8=
EXTT9=
EXTT10=
EXTT11=
EXTT12=
EXTT13=
EXTT14=
EXTT15=
EXTT16=
EXTT17=
PLAYORDER=
